{
    "asset" : {
        "generator" : "Khronos glTF Blender I/O v3.2.40",
        "version" : "2.0"
    },
    "scene" : 0,
    "scenes" : [
        {
            "name" : "Scene",
            "nodes" : [
                0
            ]
        }
    ],
    "nodes" : [
        {
            "mesh" : 0,
            "name" : "HumanFemale",
            "translation" : [
                0.5012556314468384,
                0.9827367663383484,
                0.005265086889266968
            ]
        }
    ],
    "materials" : [
        {
            "doubleSided" : true,
            "name" : "Material.002",
            "pbrMetallicRoughness" : {
                "baseColorFactor" : [
                    0.800000011920929,
                    0.800000011920929,
                    0.800000011920929,
                    1
                ],
                "metallicFactor" : 0,
                "roughnessFactor" : 0.5
            }
        }
    ],
    "meshes" : [
        {
            "name" : "meHumanFemale",
            "primitives" : [
                {
                    "attributes" : {
                        "POSITION" : 0,
                        "NORMAL" : 1,
                        "TEXCOORD_0" : 2
                    },
                    "indices" : 3,
                    "material" : 0
                }
            ]
        }
    ],
    "accessors" : [
        {
            "bufferView" : 0,
            "componentType" : 5126,
            "count" : 647,
            "max" : [
                0.8844507932662964,
                0.8042031526565552,
                0.12808942794799805
            ],
            "min" : [
                -0.8844507932662964,
                -0.9758031368255615,
                -0.18492990732192993
            ],
            "type" : "VEC3"
        },
        {
            "bufferView" : 1,
            "componentType" : 5126,
            "count" : 647,
            "type" : "VEC3"
        },
        {
            "bufferView" : 2,
            "componentType" : 5126,
            "count" : 647,
            "type" : "VEC2"
        },
        {
            "bufferView" : 3,
            "componentType" : 5123,
            "count" : 2448,
            "type" : "SCALAR"
        }
    ],
    "bufferViews" : [
        {
            "buffer" : 0,
            "byteLength" : 7764,
            "byteOffset" : 0
        },
        {
            "buffer" : 0,
            "byteLength" : 7764,
            "byteOffset" : 7764
        },
        {
            "buffer" : 0,
            "byteLength" : 5176,
            "byteOffset" : 15528
        },
        {
            "buffer" : 0,
            "byteLength" : 4896,
            "byteOffset" : 20704
        }
    ],
    "buffers" : [
        {
            "byteLength" : 25600,
            "uri" : "data:application/octet-stream;base64,"
        }
    ]
}
