{
    "asset" : {
        "generator" : "Khronos glTF Blender I/O v3.2.43",
        "version" : "2.0"
    },
    "scene" : 0,
    "scenes" : [
        {
            "name" : "Scene",
            "nodes" : [
                0
            ]
        }
    ],
    "nodes" : [
        {
            "mesh" : 0,
            "name" : "Landscape.001",
            "scale" : [
                10,
                10,
                10
            ]
        }
    ],
    "materials" : [
        {
            "doubleSided" : true,
            "name" : "Material.001",
            "pbrMetallicRoughness" : {
                "baseColorFactor" : [
                    0.7559999823570251,
                    0.5839999914169312,
                    0.3449999988079071,
                    1
                ],
                "metallicFactor" : 0,
                "roughnessFactor" : 0.5
            }
        }
    ],
    "meshes" : [
        {
            "name" : "Landscape.001",
            "primitives" : [
                {
                    "attributes" : {
                        "POSITION" : 0,
                        "NORMAL" : 1
                    },
                    "indices" : 2,
                    "material" : 0
                }
            ]
        }
    ],
    "accessors" : [
        {
            "bufferView" : 0,
            "componentType" : 5126,
            "count" : 7341,
            "max" : [
                2.5,
                0.2743803560733795,
                2.5
            ],
            "min" : [
                -2.5,
                -0.06198032945394516,
                -2.5
            ],
            "type" : "VEC3"
        },
        {
            "bufferView" : 1,
            "componentType" : 5126,
            "count" : 7341,
            "type" : "VEC3"
        },
        {
            "bufferView" : 2,
            "componentType" : 5123,
            "count" : 7953,
            "type" : "SCALAR"
        }
    ],
    "bufferViews" : [
        {
            "buffer" : 0,
            "byteLength" : 88092,
            "byteOffset" : 0
        },
        {
            "buffer" : 0,
            "byteLength" : 88092,
            "byteOffset" : 88092
        },
        {
            "buffer" : 0,
            "byteLength" : 15906,
            "byteOffset" : 176184
        }
    ],
    "buffers" : [
        {
            "byteLength" : 192092,
            "uri" : "data:application/octet-stream;base64,"
        }
    ]
}
